<svg width="1920" height="1083" xmlns="http://www.w3.org/2000/svg">
 <!-- Created with Method Draw - http://github.com/duopixel/Method-Draw/ -->

 <g>
  <title>background</title>
  <rect x="-1" y="-1" width="1922" height="1085" id="canvas_background" fill="#eeeeee"/>
  <g id="canvasGrid" display="none">
   <rect id="svg_1" width="1280" height="1080" x="1" y="1" stroke-width="0" fill="url(#gridpattern)"/>
  </g>
 </g>
 <g>
  <title>Layer 1</title>
  <path stroke="#000" fill="#0d98e8" stroke-width="0.5" d="m896.001635,527.821264c-7.130681,0 -12.905713,6.121333 -12.905713,13.679606c0,7.55306 5.775032,13.677867 12.905713,13.677867c7.124124,0 12.902435,-6.124807 12.902435,-13.677867c0.001639,-7.558273 -5.775032,-13.679606 -12.902435,-13.679606zm0,23.884143c-5.317685,-0.0139 -9.615764,-4.569714 -9.628878,-10.2028c0.011474,-5.634823 4.311193,-10.192374 9.628878,-10.206275c5.314407,0.013901 9.612486,4.571452 9.623961,10.206275c-0.011475,5.633086 -4.309554,10.1889 -9.623961,10.2028zm0,-24.799823c0.906498,0 1.639237,-0.778415 1.639237,-1.739272l0,-8.428777c-0.003278,-0.960856 -0.734378,-1.737534 -1.639237,-1.737534c-0.906498,0 -1.640876,0.780153 -1.639237,1.741009l0,8.42704c0,0.957381 0.732739,1.737534 1.639237,1.737534zm5.266869,1.108547c0.204904,0.092089 0.418005,0.132052 0.626188,0.13379c0.64586,0 1.254017,-0.404846 1.516295,-1.073796l3.042424,-7.789365c0.344239,-0.88788 -0.050817,-1.9026 -0.886828,-2.26922c-0.83765,-0.366619 -1.796603,0.053864 -2.144122,0.940006l-3.040784,7.791103c-0.345879,0.886142 0.050816,1.902599 0.886827,2.267482zm4.466921,3.164049c0.319651,0.337082 0.739296,0.509098 1.15894,0.509098s0.83929,-0.170279 1.158941,-0.509098l5.622583,-5.964954c0.640942,-0.677638 0.639303,-1.777498 0,-2.458611c-0.642581,-0.677638 -1.680218,-0.677638 -2.31952,0.003475l-5.620944,5.961479c-0.640942,0.679376 -0.640942,1.779235 0,2.458611zm2.988329,4.733043c0.258999,0.66895 0.870435,1.072058 1.513016,1.072058c0.208183,0 0.421284,-0.043438 0.627828,-0.135527l7.343782,-3.226601c0.83765,-0.36662 1.234345,-1.384815 0.886827,-2.270957s-1.304833,-1.306626 -2.142483,-0.938268l-7.345421,3.2266c-0.836011,0.368357 -1.231067,1.386552 -0.883549,2.272695zm10.637009,3.841687l-7.951939,0.001738c-0.904859,0 -1.639237,0.778415 -1.635958,1.739272c0,0.960856 0.732739,1.735796 1.635958,1.735796l7.953579,-0.003475c0.906498,0 1.637597,-0.780153 1.637597,-1.737534c0,-0.960856 -0.734378,-1.739272 -1.639237,-1.735797zm-1.144187,9.605089l-7.347061,-3.221389c-0.839289,-0.368357 -1.798243,0.052126 -2.142483,0.940006c-0.345879,0.88788 0.050817,1.904338 0.886828,2.272695l7.34706,3.221388c0.206544,0.088614 0.419645,0.130315 0.627828,0.130315c0.64422,0 1.254016,-0.403108 1.516294,-1.072059c0.34424,-0.887879 -0.054095,-1.906074 -0.888466,-2.270956zm-10.153435,2.455135c-0.640941,-0.679376 -1.676939,-0.679376 -2.317881,0.001738c-0.640941,0.677638 -0.639302,1.775759 0,2.455135l5.62914,5.958004c0.319652,0.338819 0.737657,0.509098 1.157302,0.509098s0.840928,-0.170279 1.16058,-0.509098c0.640941,-0.681113 0.637663,-1.780972 0,-2.45861l-5.629141,-5.956267zm-4.64068,4.105793c-0.345879,-0.88788 -1.304832,-1.306626 -2.142483,-0.940006c-0.83601,0.368357 -1.232706,1.384815 -0.885188,2.272695l3.048981,7.784152c0.260639,0.668951 0.870435,1.072058 1.516295,1.072058c0.209822,0 0.422923,-0.0417 0.627827,-0.132052c0.837651,-0.36662 1.232707,-1.384815 0.885189,-2.274432l-3.050621,-7.782415zm-7.404433,0.178966c-0.906499,0 -1.639238,0.778415 -1.639238,1.737534l0.006557,8.428778c0,0.960856 0.736018,1.735796 1.639237,1.735796c0.906499,0 1.639238,-0.778415 1.635959,-1.737534l-0.004918,-8.430515c0,-0.955644 -0.736017,-1.735797 -1.637597,-1.734059zm-5.271787,-1.105072c-0.836011,-0.364882 -1.793325,0.053864 -2.140843,0.943481l-3.035868,7.789365c-0.344239,0.88788 0.054095,1.904338 0.890106,2.270957c0.204905,0.090352 0.416366,0.132053 0.626189,0.132053c0.642581,0 1.254016,-0.406583 1.514655,-1.075534l3.037506,-7.79284c0.345879,-0.886142 -0.054095,-1.900862 -0.891745,-2.267482zm-4.46856,-3.157099c-0.642581,-0.679376 -1.680218,-0.675901 -2.319521,0.003475l-5.616026,5.964954c-0.640941,0.681114 -0.637663,1.777498 0.003279,2.458611c0.319651,0.337082 0.737656,0.50736 1.157301,0.50736c0.421284,0 0.840929,-0.170278 1.16058,-0.509098l5.617665,-5.966691c0.637664,-0.679376 0.637664,-1.779235 -0.003278,-2.458611zm-2.989969,-4.72783c-0.349157,-0.884405 -1.306471,-1.304888 -2.142482,-0.938268l-7.342143,3.23355c-0.83765,0.368358 -1.232706,1.386553 -0.885188,2.272695c0.262278,0.668951 0.870435,1.070321 1.514655,1.070321c0.208183,0 0.422923,-0.041701 0.627828,-0.132053l7.342142,-3.233551c0.834372,-0.371832 1.231068,-1.388289 0.885188,-2.272694zm-1.058947,-5.580959c0,-0.960857 -0.732739,-1.735797 -1.639237,-1.735797l-7.951939,0.010425c-0.906498,0 -1.640876,0.778416 -1.637598,1.739272c0.00164,0.957381 0.736018,1.737534 1.639238,1.734059l7.953578,-0.010425c0.904859,0 1.639237,-0.781891 1.635958,-1.737534zm-8.451906,-7.858867l7.351978,3.214438c0.204905,0.09209 0.416366,0.132053 0.62455,0.132053c0.64422,0 1.255655,-0.403108 1.516294,-1.073796c0.347518,-0.88788 -0.052456,-1.906075 -0.891745,-2.26922l-7.3487,-3.214438c-0.83765,-0.364882 -1.794964,0.055602 -2.140843,0.941744c-0.347519,0.88788 0.054094,1.900862 0.888466,2.269219zm10.151795,-2.463823c0.319651,0.335344 0.736018,0.505622 1.155662,0.505622s0.840929,-0.170278 1.162219,-0.512572c0.640942,-0.675901 0.637664,-1.777497 -0.006557,-2.456873l-5.62914,-5.949317c-0.639302,-0.677638 -1.680218,-0.674163 -2.317881,0.005213c-0.640942,0.677638 -0.637663,1.779235 0.003279,2.456873l5.632418,5.951054zm4.634123,-4.112743c0.262278,0.667213 0.872074,1.068583 1.513016,1.068583c0.209823,0 0.422923,-0.043438 0.629467,-0.13379c0.836011,-0.368357 1.234346,-1.386552 0.885188,-2.270957l-3.055538,-7.782414c-0.347518,-0.886143 -1.308111,-1.304889 -2.144122,-0.936531c-0.836011,0.370094 -1.231067,1.388289 -0.883549,2.272694l3.055538,7.782415z" id="svg_3"/>
  <text fill="#000000" stroke="#000" stroke-width="0" stroke-opacity="null" fill-opacity="null" x="944.099931" y="551.900029" id="svg_4" font-size="30" font-family="Helvetica, Arial, sans-serif" text-anchor="start" xml:space="preserve">Loading...</text>
 </g>
</svg>