<svg width="1920" height="1083" xmlns="http://www.w3.org/2000/svg">
 <!-- Created with Method Draw - http://github.com/duopixel/Method-Draw/ -->

 <g>
  <title>background</title>
  <rect fill="#eeeeee" id="canvas_background" height="1085" width="1922" y="-1" x="-1"/>
  <g display="none" id="canvasGrid">
   <rect fill="url(#gridpattern)" stroke-width="0" y="1" x="1" height="1080" width="1280" id="svg_1"/>
  </g>
 </g>
 <g>
  <title>Layer 1</title>
  <path id="svg_3" d="m896.00163,526.90558c0.9065,0 1.63924,-0.77841 1.63924,-1.73927l0,-8.42877c-0.00328,-0.96086 -0.73438,-1.73754 -1.63924,-1.73754c-0.90649,0 -1.64087,0.78015 -1.63923,1.74101l0,8.42704c0,0.95738 0.73274,1.73753 1.63923,1.73753zm5.26687,1.10855c0.20491,0.09209 0.41801,0.13205 0.62619,0.13379c0.64586,0 1.25402,-0.40484 1.5163,-1.07379l3.04242,-7.78937c0.34424,-0.88788 -0.05082,-1.9026 -0.88683,-2.26922c-0.83765,-0.36662 -1.7966,0.05386 -2.14412,0.94001l-3.04078,7.7911c-0.34588,0.88614 0.05081,1.9026 0.88682,2.26748zm4.46692,3.16405c0.31966,0.33708 0.7393,0.5091 1.15894,0.5091s0.83929,-0.17028 1.15895,-0.5091l5.62258,-5.96495c0.64094,-0.67764 0.6393,-1.7775 0,-2.45861c-0.64258,-0.67764 -1.68022,-0.67764 -2.31952,0.00347l-5.62095,5.96148c-0.64094,0.67938 -0.64094,1.77923 0,2.45861zm2.98833,4.73304c0.259,0.66895 0.87044,1.07206 1.51302,1.07206c0.20818,0 0.42128,-0.04344 0.62783,-0.13553l7.34378,-3.2266c0.83765,-0.36662 1.23434,-1.38481 0.88683,-2.27095s-1.30484,-1.30663 -2.14249,-0.93827l-7.34542,3.2266c-0.83601,0.36836 -1.23106,1.38655 -0.88355,2.27269zm10.63701,3.84169l-7.95194,0.00174c-0.90486,0 -1.63923,0.77841 -1.63595,1.73927c0,0.96086 0.73274,1.7358 1.63595,1.7358l7.95358,-0.00348c0.9065,0 1.6376,-0.78015 1.6376,-1.73753c0,-0.96086 -0.73438,-1.73927 -1.63924,-1.7358zm-1.14418,9.60509l-7.34707,-3.22139c-0.83928,-0.36836 -1.79824,0.05213 -2.14248,0.94001c-0.34588,0.88788 0.05082,1.90433 0.88683,2.27269l7.34706,3.22139c0.20654,0.08861 0.41965,0.13031 0.62783,0.13031c0.64422,0 1.25401,-0.4031 1.51629,-1.07205c0.34424,-0.88788 -0.05409,-1.90608 -0.88846,-2.27096zm-10.15344,2.45513c-0.64094,-0.67937 -1.67694,-0.67937 -2.31788,0.00174c-0.64094,0.67764 -0.6393,1.77576 0,2.45514l5.62914,5.958c0.31965,0.33882 0.73766,0.5091 1.1573,0.5091s0.84093,-0.17028 1.16058,-0.5091c0.64094,-0.68111 0.63767,-1.78097 0,-2.45861l-5.62914,-5.95627zm-4.64068,4.1058c-0.34588,-0.88788 -1.30483,-1.30663 -2.14248,-0.94001c-0.83601,0.36836 -1.23271,1.38482 -0.88519,2.2727l3.04898,7.78415c0.26064,0.66895 0.87044,1.07206 1.5163,1.07206c0.20982,0 0.42292,-0.0417 0.62782,-0.13206c0.83765,-0.36662 1.23271,-1.38481 0.88519,-2.27443l-3.05062,-7.78241zm-7.40443,0.17896c-0.9065,0 -1.63924,0.77842 -1.63924,1.73754l0.00656,8.42877c0,0.96086 0.73602,1.7358 1.63923,1.7358c0.9065,0 1.63924,-0.77841 1.63596,-1.73753l-0.00491,-8.43052c0,-0.95564 -0.73602,-1.7358 -1.6376,-1.73406zm-5.27179,-1.10507c-0.83601,-0.36488 -1.79332,0.05387 -2.14084,0.94348l-3.03587,7.78937c-0.34424,0.88788 0.05409,1.90434 0.89011,2.27095c0.2049,0.09036 0.41636,0.13206 0.62618,0.13206c0.64259,0 1.25402,-0.40659 1.51466,-1.07554l3.03751,-7.79284c0.34587,-0.88614 -0.0541,-1.90086 -0.89175,-2.26748zm-4.46856,-3.1571c-0.64258,-0.67937 -1.68022,-0.6759 -2.31952,0.00348l-5.61603,5.96495c-0.64094,0.68112 -0.63766,1.7775 0.00328,2.45861c0.31965,0.33708 0.73766,0.50736 1.1573,0.50736c0.42129,0 0.84093,-0.17028 1.16058,-0.5091l5.61767,-5.96669c0.63766,-0.67937 0.63766,-1.77923 -0.00328,-2.45861zm-2.98997,-4.72783c-0.34915,-0.8844 -1.30647,-1.30489 -2.14248,-0.93827l-7.34214,3.23355c-0.83765,0.36836 -1.23271,1.38656 -0.88519,2.2727c0.26228,0.66895 0.87043,1.07032 1.51465,1.07032c0.20819,0 0.42293,-0.0417 0.62783,-0.13205l7.34214,-3.23355c0.83438,-0.37184 1.23107,-1.38829 0.88519,-2.2727zm-1.05894,-5.58096c0,-0.96085 -0.73274,-1.73579 -1.63924,-1.73579l-7.95194,0.01042c-0.9065,0 -1.64088,0.77842 -1.6376,1.73927c0.00164,0.95738 0.73602,1.73754 1.63924,1.73406l7.95358,-0.01042c0.90486,0 1.63923,-0.78189 1.63595,-1.73754l0.00001,0zm-8.45191,-7.85886l7.35198,3.21443c0.2049,0.09209 0.41636,0.13206 0.62455,0.13206c0.64422,0 1.25565,-0.40311 1.51629,-1.0738c0.34752,-0.88788 -0.05245,-1.90607 -0.89174,-2.26922l-7.3487,-3.21444c-0.83765,-0.36488 -1.79497,0.0556 -2.14085,0.94175c-0.34752,0.88788 0.0541,1.90086 0.88847,2.26922zm10.15179,-2.46383c0.31966,0.33535 0.73602,0.50562 1.15567,0.50562s0.84093,-0.17027 1.16222,-0.51257c0.64094,-0.6759 0.63766,-1.77749 -0.00656,-2.45687l-5.62914,-5.94932c-0.6393,-0.67763 -1.68022,-0.67416 -2.31788,0.00522c-0.64094,0.67763 -0.63767,1.77923 0.00328,2.45687l5.63241,5.95105zm4.63413,-4.11274c0.26228,0.66721 0.87207,1.06858 1.51301,1.06858c0.20983,0 0.42293,-0.04344 0.62947,-0.13379c0.83601,-0.36835 1.23435,-1.38655 0.88519,-2.27095l-3.05554,-7.78242c-0.34752,-0.88614 -1.30811,-1.30489 -2.14412,-0.93653c-0.83601,0.37009 -1.23107,1.38829 -0.88355,2.27269l3.05554,7.78242z" stroke-width="0.5" fill="#0d98e8" stroke="#000"/>
  <text xml:space="preserve" text-anchor="start" font-family="Helvetica, Arial, sans-serif" font-size="30" id="svg_4" y="551.900029" x="944.099931" fill-opacity="null" stroke-opacity="null" stroke-width="0" stroke="#000" fill="#000000">Loading...</text>
 </g>
</svg>