<svg xmlns="http://www.w3.org/2000/svg" width="1920" height="1083"><title>background</title><path id="canvas_background" fill="#eee" d="M-1-1h1922v1085H-1z"/><g id="canvasGrid" display="none"><path id="svg_1" fill="url(#gridpattern)" stroke-width="0" d="M1 1h1280v1080H1z"/></g><title>Layer 1</title><path id="svg_3" fill="#0d98e8" stroke="#000" stroke-width=".5" d="M896.002 526.906c.906 0 1.639-.779 1.639-1.74v-8.428c-.003-.961-.735-1.738-1.64-1.738-.906 0-1.64.78-1.639 1.741v8.427c0 .957.733 1.738 1.64 1.738zm5.267 1.108c.204.092.418.132.626.134.646 0 1.254-.405 1.516-1.074l3.042-7.79c.345-.887-.05-1.902-.886-2.268-.838-.367-1.797.053-2.145.94l-3.04 7.79c-.346.887.05 1.903.886 2.268zm4.466 3.164c.32.337.74.51 1.16.51s.839-.171 1.158-.51l5.623-5.965c.64-.677.64-1.777 0-2.458a1.575 1.575 0 0 0-2.32.003l-5.62 5.962a1.81 1.81 0 0 0 0 2.458zm2.989 4.733c.259.67.87 1.072 1.513 1.072.208 0 .421-.043.628-.135l7.343-3.227c.838-.366 1.235-1.385.887-2.27s-1.305-1.307-2.142-.94l-7.346 3.228c-.836.368-1.23 1.386-.883 2.272zm10.637 3.842-7.952.002c-.905 0-1.64.778-1.636 1.739 0 .96.733 1.736 1.636 1.736l7.953-.004c.907 0 1.638-.78 1.638-1.737 0-.961-.734-1.74-1.64-1.736zm-1.144 9.605-7.347-3.221c-.84-.369-1.799.052-2.143.94-.346.887.05 1.904.887 2.272l7.347 3.222c.206.088.42.13.628.13.644 0 1.254-.403 1.516-1.072.344-.888-.054-1.906-.888-2.271zm-10.154 2.455a1.57 1.57 0 0 0-2.318.002 1.81 1.81 0 0 0 0 2.455l5.63 5.958c.32.339.737.51 1.157.51s.84-.171 1.16-.51a1.816 1.816 0 0 0 0-2.459zm-4.64 4.106c-.346-.888-1.305-1.307-2.143-.94-.836.368-1.233 1.385-.885 2.273l3.049 7.784c.26.669.87 1.072 1.516 1.072.21 0 .423-.042.628-.132.838-.367 1.233-1.385.885-2.275zm-7.405.179c-.906 0-1.64.778-1.64 1.737l.007 8.43c0 .96.736 1.735 1.64 1.735.906 0 1.639-.778 1.636-1.738l-.005-8.43c0-.956-.736-1.736-1.638-1.734zm-5.272-1.105c-.836-.365-1.793.054-2.14.943l-3.036 7.79c-.345.888.054 1.904.89 2.27q.31.135.626.133c.642 0 1.254-.407 1.514-1.076l3.038-7.793c.346-.886-.054-1.9-.892-2.267zm-4.468-3.157a1.575 1.575 0 0 0-2.32.003l-5.616 5.965a1.81 1.81 0 0 0 .003 2.459c.32.337.738.507 1.158.507.421 0 .84-.17 1.16-.509l5.618-5.967a1.814 1.814 0 0 0-.003-2.458zm-2.99-4.728c-.35-.885-1.307-1.305-2.143-.938l-7.342 3.233c-.838.369-1.233 1.387-.885 2.273.262.669.87 1.07 1.515 1.07.208 0 .422-.042.627-.132l7.343-3.233c.834-.372 1.23-1.389.885-2.273zm-1.06-5.581c0-.96-.732-1.736-1.638-1.736l-7.952.01c-.907 0-1.641.779-1.638 1.74.002.957.736 1.737 1.64 1.734l7.953-.01c.905 0 1.639-.782 1.636-1.738zm-8.451-7.859 7.352 3.214c.205.093.416.133.624.133.645 0 1.256-.404 1.517-1.074.347-.888-.053-1.906-.892-2.27l-7.349-3.214c-.837-.365-1.795.056-2.14.942-.348.888.053 1.9.888 2.27zm10.152-2.464c.32.336.736.506 1.155.506s.841-.17 1.163-.513c.64-.676.637-1.777-.007-2.457l-5.63-5.949a1.574 1.574 0 0 0-2.317.005 1.81 1.81 0 0 0 .003 2.457zm4.634-4.113c.262.668.872 1.07 1.513 1.07.21 0 .423-.044.63-.135.835-.368 1.234-1.386.884-2.27l-3.055-7.783c-.348-.886-1.308-1.305-2.144-.937-.836.37-1.231 1.389-.884 2.273z"/><text xml:space="preserve" id="svg_4" x="944.1" y="551.9" fill="#000" fill-opacity="null" stroke="#000" stroke-opacity="null" stroke-width="0" font-family="Helvetica, Arial, sans-serif" font-size="30" text-anchor="start">Loading...</text></svg>